<svg xmlns="http://www.w3.org/2000/svg" height="206.392" width="118.948"><path d="M33.371 48.848C53.266 91.237-11.41 124.217 6.523 166.885c11.518 27.4 48.614 43.311 76.745 36.138 30.193-7.7 36.353-39.221 33.527-65.8-1.314-12.38-5.493-21.447-12.863-31.364-6.74-9.07-15.876-14.693-24.451-22.012-11.8-10.074-28.834-17.516-25.376-35.511 2.344-12.2 10.622-18.149 17.821-27.375 2.705-3.467 7.969-11.357.648-11.767-6.634-.371-9.657 11.739-17.01 8.251-5.543-2.629-5.8-17.708-15.146-15.772-9.76 2.022-.425 17.52-6.231 19.5-3.883 1.322-8.273-6-12.738-1.11-2.236 2.448.975 3.423-2.317 6.021-4.422 3.49-13 .078-16.66 6.323-2.635 4.5.671 8.871 4.837 10.914 7.097 3.478 23.223-6.247 26.062 5.527z" fill="#fcf6dc" stroke="#3e4147" stroke-linecap="round" stroke-linejoin="round" stroke-width="3"/><path d="M116.835 159.083a69.775 69.775 0 01-24.108 5.087c-20.3.3-37.8-3.7-45.869-24.125-7.294-18.465-5.869-38.734.7-57.041 3.255-9.063 1.943-16.068-.022-25.239-1.634-7.624-1.918-16.171-7.408-22.289-6.271-6.989-13.584 1.852-21.242-1.018-2.5-.937-3.858-3.634-4.233-6.714-4.353.67-9.545.158-12.183 4.661s.671 8.871 4.837 10.914c7.1 3.48 23.223-6.245 26.062 5.529 19.9 42.389-44.782 75.369-26.848 118.037 11.518 27.4 48.614 43.311 76.745 36.138 22.111-5.638 31.326-24.05 33.569-43.94z" fill="#ebdaa7"/><g fill="none" stroke="#3e4147" stroke-linecap="round" stroke-linejoin="round" stroke-width="3"><path d="M33.371 48.848C53.266 91.237-11.41 124.217 6.523 166.885c11.518 27.4 48.614 43.311 76.745 36.138 30.193-7.7 36.353-39.221 33.527-65.8-1.314-12.38-5.493-21.447-12.863-31.364-6.74-9.07-15.876-14.693-24.451-22.012-11.8-10.074-28.834-17.516-25.376-35.511 2.344-12.2 10.622-18.149 17.821-27.375 2.705-3.467 7.969-11.357.648-11.767-6.634-.371-9.657 11.739-17.01 8.251-5.543-2.629-5.8-17.708-15.146-15.772-9.76 2.022-.425 17.52-6.231 19.5-3.883 1.322-8.273-6-12.738-1.11-2.236 2.448.975 3.423-2.317 6.021-4.422 3.49-13 .078-16.66 6.323-2.635 4.5.671 8.871 4.837 10.914 7.097 3.478 23.223-6.247 26.062 5.527z"/><path d="M33.913 49.39a97.467 97.467 0 0121.684-2.873c-5.919 2.85-12.7 4.667-17.7 9.218 4.925.675 11.218-4.625 16.107-2.593-1.361 5.461-16.494 7.949-20.552 12.98 3.959.13 19.154-8.942 20.557-3.714-5.442 2.993-14.345 5.408-17.5 10.979 3.792 1.528 10.124-3.745 13.54-5.325 3.737-1.728 7.932-2.44 11.546-4.019M83.299 124.826c-7.139-10.971-24.867-9.172-34.08-2.089-5.76 4.43-10.08 12.131-1.655 15.736 6.705 2.87 16.6.979 23.795 1.96 13.064 1.781 19.146 17.277 6.01 24.443-6.977 3.806-18.243 5.222-25.595 2.169-6.187-2.569-6.939-7.394-8.635-12.913"/><path d="M63.426 107.778c-1.325 15.84-7.3 31.4-9.137 47.2-.71 6.116-.779 12.273-1.84 18.369-.143.815-1.767 5.519-.94 3.639M76.078 108.446c-4.664 21.933-9.524 50.136-14.676 68.993"/></g></svg>
