<?xml version="1.0" encoding="UTF-8" standalone="no"?>
<!DOCTYPE svg PUBLIC "-//W3C//DTD SVG 1.1//EN"
 "http://www.w3.org/Graphics/SVG/1.1/DTD/svg11.dtd">
<!-- Generated by graphviz version 2.44.1 (20200629.0846)
 -->
<!-- Pages: 1 -->
<svg width="604pt" height="419pt"
 viewBox="0.00 0.00 604.00 419.00" xmlns="http://www.w3.org/2000/svg" xmlns:xlink="http://www.w3.org/1999/xlink">
<g id="graph0" class="graph" transform="scale(1 1) rotate(0) translate(4 415)">
<polygon fill="white" stroke="transparent" points="-4,4 -4,-415 600,-415 600,4 -4,4"/>
<!-- Inkscape -->
<g id="node1" class="node">
<title>Inkscape</title>
<polygon fill="lightgreen" stroke="black" points="596,-411 474,-411 474,-368 596,-368 596,-411"/>
<text text-anchor="middle" x="535" y="-385.8" font-family="Times,serif" font-size="14.00">Inkscape</text>
</g>
<!-- poppler -->
<g id="node2" class="node">
<title>poppler</title>
<polygon fill="lightcyan" stroke="black" points="438,-381 316,-381 316,-338 438,-338 438,-381"/>
<text text-anchor="middle" x="377" y="-355.8" font-family="Times,serif" font-size="14.00">poppler</text>
</g>
<!-- Inkscape&#45;&gt;poppler -->
<g id="edge1" class="edge">
<title>Inkscape&#45;&gt;poppler</title>
<path fill="none" stroke="black" d="M473.69,-377.9C465.31,-376.29 456.64,-374.62 448.1,-372.98"/>
<polygon fill="black" stroke="black" points="448.63,-369.52 438.15,-371.07 447.31,-376.39 448.63,-369.52"/>
</g>
<!-- cURL -->
<g id="node3" class="node">
<title>cURL</title>
<polygon fill="lightyellow" stroke="black" points="280,-259 158,-259 158,-216 280,-216 280,-259"/>
<text text-anchor="middle" x="219" y="-233.8" font-family="Times,serif" font-size="14.00">cURL</text>
</g>
<!-- poppler&#45;&gt;cURL -->
<g id="edge2" class="edge">
<title>poppler&#45;&gt;cURL</title>
<path fill="none" stroke="black" d="M329.33,-337.93C324.71,-335.28 320.19,-332.45 316,-329.5 290.01,-311.19 264.2,-285.95 245.9,-266.54"/>
<polygon fill="black" stroke="black" points="248.4,-264.09 239.03,-259.15 243.27,-268.86 248.4,-264.09"/>
</g>
<!-- OpenSSL -->
<g id="node4" class="node">
<title>OpenSSL</title>
<polygon fill="lightsalmon" stroke="black" points="122,-154 0,-154 0,-111 122,-111 122,-154"/>
<text text-anchor="middle" x="61" y="-128.8" font-family="Times,serif" font-size="14.00">OpenSSL</text>
</g>
<!-- cURL&#45;&gt;OpenSSL -->
<g id="edge3" class="edge">
<title>cURL&#45;&gt;OpenSSL</title>
<path fill="none" stroke="black" d="M186.05,-216C161.95,-199.77 128.7,-177.39 102.69,-159.89"/>
<polygon fill="black" stroke="black" points="104.42,-156.83 94.17,-154.15 100.51,-162.64 104.42,-156.83"/>
</g>
<!-- XeTeX -->
<g id="node5" class="node">
<title>XeTeX</title>
<polygon fill="lightgreen" stroke="black" points="596,-350 474,-350 474,-307 596,-307 596,-350"/>
<text text-anchor="middle" x="535" y="-324.8" font-family="Times,serif" font-size="14.00">XeTeX</text>
</g>
<!-- XeTeX&#45;&gt;poppler -->
<g id="edge4" class="edge">
<title>XeTeX&#45;&gt;poppler</title>
<path fill="none" stroke="black" d="M473.69,-340.49C465.31,-342.15 456.64,-343.87 448.1,-345.57"/>
<polygon fill="black" stroke="black" points="447.28,-342.16 438.15,-347.55 448.64,-349.03 447.28,-342.16"/>
</g>
<!-- cmake -->
<g id="node6" class="node">
<title>cmake</title>
<polygon fill="lightgreen" stroke="black" points="438,-320 316,-320 316,-277 438,-277 438,-320"/>
<text text-anchor="middle" x="377" y="-294.8" font-family="Times,serif" font-size="14.00">cmake</text>
</g>
<!-- cmake&#45;&gt;cURL -->
<g id="edge5" class="edge">
<title>cmake&#45;&gt;cURL</title>
<path fill="none" stroke="black" d="M321,-276.99C309.23,-272.39 296.7,-267.49 284.61,-262.76"/>
<polygon fill="black" stroke="black" points="285.62,-259.4 275.03,-259.02 283.07,-265.92 285.62,-259.4"/>
</g>
<!-- qemu -->
<g id="node7" class="node">
<title>qemu</title>
<polygon fill="lightgreen" stroke="black" points="438,-259 316,-259 316,-216 438,-216 438,-259"/>
<text text-anchor="middle" x="377" y="-233.8" font-family="Times,serif" font-size="14.00">qemu</text>
</g>
<!-- qemu&#45;&gt;cURL -->
<g id="edge6" class="edge">
<title>qemu&#45;&gt;cURL</title>
<path fill="none" stroke="black" d="M315.69,-237.5C307.4,-237.5 298.83,-237.5 290.37,-237.5"/>
<polygon fill="black" stroke="black" points="290.15,-234 280.15,-237.5 290.15,-241 290.15,-234"/>
</g>
<!-- Transmission -->
<g id="node8" class="node">
<title>Transmission</title>
<polygon fill="lightgreen" stroke="black" points="438,-198 316,-198 316,-155 438,-155 438,-198"/>
<text text-anchor="middle" x="377" y="-172.8" font-family="Times,serif" font-size="14.00">Transmission</text>
</g>
<!-- Transmission&#45;&gt;cURL -->
<g id="edge7" class="edge">
<title>Transmission&#45;&gt;cURL</title>
<path fill="none" stroke="black" d="M321,-198.01C309.23,-202.61 296.7,-207.51 284.61,-212.24"/>
<polygon fill="black" stroke="black" points="283.07,-209.08 275.03,-215.98 285.62,-215.6 283.07,-209.08"/>
</g>
<!-- Transmission&#45;&gt;OpenSSL -->
<g id="edge9" class="edge">
<title>Transmission&#45;&gt;OpenSSL</title>
<path fill="none" stroke="black" d="M315.85,-176.48C271.8,-175.54 210.76,-172.29 158,-162.5 149.46,-160.91 140.6,-158.81 131.89,-156.45"/>
<polygon fill="black" stroke="black" points="132.71,-153.05 122.13,-153.69 130.8,-159.78 132.71,-153.05"/>
</g>
<!-- Tor -->
<g id="node9" class="node">
<title>Tor</title>
<polygon fill="lightgreen" stroke="black" points="280,-154 158,-154 158,-111 280,-111 280,-154"/>
<text text-anchor="middle" x="219" y="-128.8" font-family="Times,serif" font-size="14.00">Tor</text>
</g>
<!-- Tor&#45;&gt;OpenSSL -->
<g id="edge8" class="edge">
<title>Tor&#45;&gt;OpenSSL</title>
<path fill="none" stroke="black" d="M157.69,-132.5C149.4,-132.5 140.83,-132.5 132.37,-132.5"/>
<polygon fill="black" stroke="black" points="132.15,-129 122.15,-132.5 132.15,-136 132.15,-129"/>
</g>
<!-- Synergy -->
<g id="node10" class="node">
<title>Synergy</title>
<polygon fill="lightgreen" stroke="black" points="438,-104 316,-104 316,-61 438,-61 438,-104"/>
<text text-anchor="middle" x="377" y="-78.8" font-family="Times,serif" font-size="14.00">Synergy</text>
</g>
<!-- Synergy&#45;&gt;OpenSSL -->
<g id="edge10" class="edge">
<title>Synergy&#45;&gt;OpenSSL</title>
<path fill="none" stroke="black" d="M315.8,-84.1C271.73,-86.16 210.69,-90.84 158,-101.5 149.24,-103.27 140.15,-105.57 131.23,-108.11"/>
<polygon fill="black" stroke="black" points="130.21,-104.76 121.62,-110.96 132.2,-111.48 130.21,-104.76"/>
</g>
<!-- Qt5 -->
<g id="node11" class="node">
<title>Qt5</title>
<polygon fill="lightcyan" stroke="black" points="280,-54 158,-54 158,-11 280,-11 280,-54"/>
<text text-anchor="middle" x="219" y="-28.8" font-family="Times,serif" font-size="14.00">Qt5</text>
</g>
<!-- Synergy&#45;&gt;Qt5 -->
<g id="edge12" class="edge">
<title>Synergy&#45;&gt;Qt5</title>
<path fill="none" stroke="black" d="M315.69,-63.17C307.21,-60.45 298.45,-57.64 289.82,-54.88"/>
<polygon fill="black" stroke="black" points="290.74,-51.5 280.15,-51.78 288.61,-58.17 290.74,-51.5"/>
</g>
<!-- Qt5&#45;&gt;OpenSSL -->
<g id="edge11" class="edge">
<title>Qt5&#45;&gt;OpenSSL</title>
<path fill="none" stroke="black" d="M181.34,-54.12C173.59,-58.79 165.49,-63.76 158,-68.5 139.55,-80.18 119.41,-93.51 102.36,-104.98"/>
<polygon fill="black" stroke="black" points="100.08,-102.29 93.75,-110.78 104,-108.09 100.08,-102.29"/>
</g>
<!-- KeepAssXC -->
<g id="node12" class="node">
<title>KeepAssXC</title>
<polygon fill="lightgreen" stroke="black" points="438,-43 316,-43 316,0 438,0 438,-43"/>
<text text-anchor="middle" x="377" y="-17.8" font-family="Times,serif" font-size="14.00">KeepAssXC</text>
</g>
<!-- KeepAssXC&#45;&gt;Qt5 -->
<g id="edge13" class="edge">
<title>KeepAssXC&#45;&gt;Qt5</title>
<path fill="none" stroke="black" d="M315.69,-25.75C307.4,-26.34 298.83,-26.94 290.37,-27.54"/>
<polygon fill="black" stroke="black" points="289.88,-24.06 280.15,-28.26 290.37,-31.05 289.88,-24.06"/>
</g>
</g>
</svg>
